<mxfile host="app.diagrams.net" modified="2022-01-09T16:51:36.182Z" agent="5.0 (Windows NT 10.0; Win64; x64) AppleWebKit/537.36 (KHTML, like Gecko) Chrome/96.0.4664.110 Safari/537.36" etag="0WF6Aj3HXpoXb0O7nVhk" version="15.8.2" type="github">
  <diagram id="ZLGJGffp-yph2zPGGAwK" name="第 1 页">
    <mxGraphModel dx="782" dy="457" grid="1" gridSize="10" guides="1" tooltips="1" connect="1" arrows="1" fold="1" page="1" pageScale="1" pageWidth="827" pageHeight="1169" math="0" shadow="0">
      <root>
        <mxCell id="0" />
        <mxCell id="1" parent="0" />
        <mxCell id="T-cb4IlArOU8WCy4CD7B-25" value="" style="rounded=0;whiteSpace=wrap;html=1;sketch=0;fontStyle=1;fontFamily=Times New Roman;fontSize=14;" vertex="1" parent="1">
          <mxGeometry x="280" y="20" width="370" height="410" as="geometry" />
        </mxCell>
        <mxCell id="T-cb4IlArOU8WCy4CD7B-5" style="edgeStyle=orthogonalEdgeStyle;curved=0;rounded=1;sketch=0;orthogonalLoop=1;jettySize=auto;html=1;exitX=1;exitY=0.5;exitDx=0;exitDy=0;entryX=0;entryY=0.5;entryDx=0;entryDy=0;fontStyle=1;fontFamily=Times New Roman;fontSize=14;" edge="1" parent="1" source="T-cb4IlArOU8WCy4CD7B-1" target="T-cb4IlArOU8WCy4CD7B-2">
          <mxGeometry relative="1" as="geometry" />
        </mxCell>
        <mxCell id="T-cb4IlArOU8WCy4CD7B-10" style="edgeStyle=orthogonalEdgeStyle;curved=0;rounded=1;sketch=0;orthogonalLoop=1;jettySize=auto;html=1;exitX=1;exitY=0.5;exitDx=0;exitDy=0;entryX=0;entryY=0.5;entryDx=0;entryDy=0;fontStyle=1;fontFamily=Times New Roman;fontSize=14;" edge="1" parent="1" source="T-cb4IlArOU8WCy4CD7B-1" target="T-cb4IlArOU8WCy4CD7B-8">
          <mxGeometry relative="1" as="geometry" />
        </mxCell>
        <mxCell id="T-cb4IlArOU8WCy4CD7B-11" style="edgeStyle=orthogonalEdgeStyle;curved=0;rounded=1;sketch=0;orthogonalLoop=1;jettySize=auto;html=1;exitX=1;exitY=0.5;exitDx=0;exitDy=0;entryX=0;entryY=0.5;entryDx=0;entryDy=0;fontStyle=1;fontFamily=Times New Roman;fontSize=14;" edge="1" parent="1" source="T-cb4IlArOU8WCy4CD7B-1" target="T-cb4IlArOU8WCy4CD7B-7">
          <mxGeometry relative="1" as="geometry" />
        </mxCell>
        <mxCell id="T-cb4IlArOU8WCy4CD7B-12" style="edgeStyle=orthogonalEdgeStyle;curved=0;rounded=1;sketch=0;orthogonalLoop=1;jettySize=auto;html=1;exitX=1;exitY=0.5;exitDx=0;exitDy=0;entryX=0;entryY=0.75;entryDx=0;entryDy=0;fontStyle=1;fontFamily=Times New Roman;fontSize=14;" edge="1" parent="1" source="T-cb4IlArOU8WCy4CD7B-1" target="T-cb4IlArOU8WCy4CD7B-6">
          <mxGeometry relative="1" as="geometry" />
        </mxCell>
        <mxCell id="T-cb4IlArOU8WCy4CD7B-1" value="抽象content_id" style="rounded=0;whiteSpace=wrap;html=1;sketch=0;fontStyle=1;fontFamily=Times New Roman;fontSize=14;" vertex="1" parent="1">
          <mxGeometry x="290" y="210" width="120" height="60" as="geometry" />
        </mxCell>
        <mxCell id="T-cb4IlArOU8WCy4CD7B-2" value="&lt;div class=&quot;okr-block-clipboard&quot; style=&quot;font-size: 14px;&quot;&gt;&lt;/div&gt;&lt;div style=&quot;font-size: 14px;&quot;&gt;活动专题绑定id&lt;/div&gt;" style="rounded=0;whiteSpace=wrap;html=1;sketch=0;fontStyle=1;fontFamily=Times New Roman;fontSize=14;" vertex="1" parent="1">
          <mxGeometry x="490" y="80" width="120" height="60" as="geometry" />
        </mxCell>
        <mxCell id="T-cb4IlArOU8WCy4CD7B-6" value="&#xa;&#xa;&lt;div class=&quot;okr-block-clipboard&quot; style=&quot;font-size: 14px;&quot;&gt;&lt;/div&gt;&lt;div style=&quot;font-size: 14px;&quot;&gt;活动专题id（比如好物大赏）&lt;/div&gt;&#xa;&#xa;" style="rounded=0;whiteSpace=wrap;html=1;sketch=0;fontStyle=1;fontFamily=Times New Roman;fontSize=14;" vertex="1" parent="1">
          <mxGeometry x="490" y="340" width="120" height="60" as="geometry" />
        </mxCell>
        <mxCell id="T-cb4IlArOU8WCy4CD7B-7" value="&lt;div class=&quot;okr-block-clipboard&quot; style=&quot;font-size: 14px;&quot;&gt;&lt;/div&gt;&lt;div style=&quot;font-size: 14px;&quot;&gt;native页面&lt;/div&gt;" style="rounded=0;whiteSpace=wrap;html=1;sketch=0;fontStyle=1;fontFamily=Times New Roman;fontSize=14;" vertex="1" parent="1">
          <mxGeometry x="490" y="170" width="120" height="60" as="geometry" />
        </mxCell>
        <mxCell id="T-cb4IlArOU8WCy4CD7B-8" value="&lt;div class=&quot;okr-block-clipboard&quot; style=&quot;font-size: 14px;&quot;&gt;&lt;/div&gt;&lt;div style=&quot;font-size: 14px;&quot;&gt;榜单页&lt;/div&gt;" style="rounded=0;whiteSpace=wrap;html=1;sketch=0;fontStyle=1;fontFamily=Times New Roman;fontSize=14;" vertex="1" parent="1">
          <mxGeometry x="490" y="250" width="120" height="60" as="geometry" />
        </mxCell>
        <mxCell id="T-cb4IlArOU8WCy4CD7B-14" value="dwd" style="rounded=0;whiteSpace=wrap;html=1;sketch=0;fontStyle=1;fontFamily=Times New Roman;fontSize=14;" vertex="1" parent="1">
          <mxGeometry x="120" y="210" width="120" height="60" as="geometry" />
        </mxCell>
        <mxCell id="T-cb4IlArOU8WCy4CD7B-19" value="dws" style="rounded=0;whiteSpace=wrap;html=1;sketch=0;fontStyle=1;fontFamily=Times New Roman;fontSize=14;" vertex="1" parent="1">
          <mxGeometry x="680" y="200" width="120" height="60" as="geometry" />
        </mxCell>
      </root>
    </mxGraphModel>
  </diagram>
</mxfile>
